<svg id="Capa_1" data-name="Capa 1" xmlns="http://www.w3.org/2000/svg" viewBox="0 0 25.63 29.3"><defs><style>.cls-1{fill:#333;}</style></defs><path class="cls-1" d="M23,9.28H19.06v-3a6.25,6.25,0,1,0-12.49,0v3H2.66A2.66,2.66,0,0,0,0,11.94V24A5.27,5.27,0,0,0,5.27,29.3H20.36A5.28,5.28,0,0,0,25.63,24V11.94A2.67,2.67,0,0,0,23,9.28Zm-13.83-3a3.68,3.68,0,1,1,7.35,0v3H9.14ZM23.06,24a2.71,2.71,0,0,1-2.7,2.7H5.27A2.7,2.7,0,0,1,2.57,24l.09-12.18,3.91,0v3.56a1.29,1.29,0,1,0,2.57,0V11.88l7.35,0v3.52a1.29,1.29,0,1,0,2.57,0V11.92l4,0Z"/></svg>