<svg id="Capa_1" data-name="Capa 1" xmlns="http://www.w3.org/2000/svg" viewBox="0 0 42 42"><defs><style>.cls-1{fill:#999;}</style></defs><path class="cls-1" d="M21,7.22A16.28,16.28,0,0,0,4.72,23.5v8.15a1.88,1.88,0,0,1-3.76,0V23.5A20,20,0,0,1,41,23.5v8.15a1.88,1.88,0,0,1-3.76,0V23.5A16.28,16.28,0,0,0,21,7.22ZM7.22,28.51a5,5,0,0,1,5-5h1.26A2.5,2.5,0,0,1,16,26V36a2.5,2.5,0,0,1-2.5,2.5H12.23a5,5,0,0,1-5-5Zm22.55-5a5,5,0,0,1,5,5v5a5,5,0,0,1-5,5H28.51A2.5,2.5,0,0,1,26,36V26a2.5,2.5,0,0,1,2.5-2.51Z"/></svg>