<svg id="Capa_1" data-name="Capa 1" xmlns="http://www.w3.org/2000/svg" viewBox="0 0 42 42"><defs><style>.cls-1{fill:#999;}</style></defs><path class="cls-1" d="M40.12,1.53A2.51,2.51,0,0,1,41,3.47V14.74c0,2.07-2.25,3.76-5,3.76s-5-1.69-5-3.76S33.26,11,36,11V6.52L28.51,8v9.22c0,2.08-2.24,3.76-5,3.76s-5-1.68-5-3.76,2.25-3.75,5-3.75V6a2.52,2.52,0,0,1,2-2.46L38,1a2.53,2.53,0,0,1,2.08.52ZM6.81,24.76l.92-1.4a2.51,2.51,0,0,1,2.08-1.11h4.83a2.5,2.5,0,0,1,2.08,1.11l.94,1.4h2.09a3.75,3.75,0,0,1,3.75,3.75v8.77A3.76,3.76,0,0,1,19.75,41h-15A3.76,3.76,0,0,1,1,37.28V28.51a3.75,3.75,0,0,1,3.76-3.75ZM16,32.9a3.76,3.76,0,1,0-3.76,3.75A3.76,3.76,0,0,0,16,32.9ZM38.43,22.75l-3,7h4.36a1.25,1.25,0,0,1,.83,2.2l-10,8.76A1.22,1.22,0,0,1,29,40.8a1.25,1.25,0,0,1-.42-1.5l3-7H27.26a1.26,1.26,0,0,1-.83-2.2l10-8.76A1.25,1.25,0,0,1,38,21.23a1.26,1.26,0,0,1,.41,1.51ZM11.89,18.11a1.25,1.25,0,0,1-1.8,0L2.52,10.29a5.61,5.61,0,0,1,.39-8.13,5.38,5.38,0,0,1,7.31.51l.78.82.75-.82a5.42,5.42,0,0,1,7.35-.51,5.65,5.65,0,0,1,.35,8.13L11.9,18.11Z"/></svg>