<svg id="Capa_1" data-name="Capa 1" xmlns="http://www.w3.org/2000/svg" viewBox="0 0 25.36 25.36"><defs><style>.cls-1{fill:#fff;}</style></defs><path class="cls-1" d="M12.68,5.14A7.45,7.45,0,0,0,6.36,16.57l.17.28L5.78,19.6l2.82-.74.28.16a7.4,7.4,0,0,0,3.79,1h0a7.54,7.54,0,0,0,7.54-7.46A7.49,7.49,0,0,0,18,7.33a7.37,7.37,0,0,0-5.27-2.19ZM17.07,15.8a2.33,2.33,0,0,1-1.52,1.07,4.42,4.42,0,0,1-2.68-.56A10.19,10.19,0,0,1,9,12.92a4.37,4.37,0,0,1-.91-2.32A2.5,2.5,0,0,1,8.9,8.73a.83.83,0,0,1,.6-.29h.43c.14,0,.33,0,.51.39s.63,1.55.69,1.66a.41.41,0,0,1,0,.39c-.43.86-.88.83-.65,1.22a6.07,6.07,0,0,0,3,2.67c.23.11.36.09.49-.06a10,10,0,0,0,.7-.88c.15-.22.3-.18.51-.11s1.3.62,1.53.73.37.17.43.26A2,2,0,0,1,17.07,15.8ZM22.64,0H2.72A2.72,2.72,0,0,0,0,2.72V22.64a2.72,2.72,0,0,0,2.72,2.72H22.64a2.72,2.72,0,0,0,2.72-2.72V2.72A2.72,2.72,0,0,0,22.64,0Zm-10,21.58a8.92,8.92,0,0,1-4.29-1.1L3.62,21.73,4.9,17.08A9,9,0,0,1,19,6.25a9,9,0,0,1,2.71,6.35,9.06,9.06,0,0,1-9.06,9Z"/></svg>