<svg id="Capa_1" data-name="Capa 1" xmlns="http://www.w3.org/2000/svg" viewBox="0 0 25.37 25.37"><defs><style>.cls-1{fill:#fff;}</style></defs><path class="cls-1" d="M12.69,6.18a6.51,6.51,0,1,0,6.5,6.5A6.49,6.49,0,0,0,12.69,6.18Zm0,10.73a4.23,4.23,0,1,1,4.23-4.23,4.24,4.24,0,0,1-4.23,4.23ZM21,5.91A1.52,1.52,0,1,1,19.46,4.4,1.5,1.5,0,0,1,21,5.91Zm4.31,1.54a7.46,7.46,0,0,0-2.05-5.31A7.55,7.55,0,0,0,17.92.09C15.82,0,9.55,0,7.45.09a7.57,7.57,0,0,0-5.31,2A7.55,7.55,0,0,0,.09,7.45C0,9.54,0,15.82.09,17.91a7.55,7.55,0,0,0,2.05,5.32,7.61,7.61,0,0,0,5.31,2.05c2.1.12,8.37.12,10.47,0a7.5,7.5,0,0,0,5.31-2.05,7.55,7.55,0,0,0,2.05-5.32c.12-2.09.12-8.36,0-10.46Zm-2.7,12.71a4.29,4.29,0,0,1-2.41,2.41c-1.67.66-5.64.51-7.48.51s-5.81.15-7.48-.51A4.29,4.29,0,0,1,2.8,20.16c-.66-1.67-.51-5.63-.51-7.48s-.15-5.81.51-7.47A4.31,4.31,0,0,1,5.21,2.79c1.67-.66,5.63-.5,7.48-.5s5.81-.15,7.48.5a4.34,4.34,0,0,1,2.41,2.42c.66,1.67.51,5.63.51,7.47S23.24,18.5,22.58,20.16Z"/></svg>