<svg id="Capa_1" data-name="Capa 1" xmlns="http://www.w3.org/2000/svg" viewBox="0 0 15.45 15.45"><defs><style>.cls-1{fill:#e95557;}</style></defs><path class="cls-1" d="M7.72,0a7.73,7.73,0,1,0,7.73,7.72A7.72,7.72,0,0,0,7.72,0Zm.93,2.71L8.48,10H7L6.84,2.71ZM8.49,12.82a.94.94,0,0,1-.72.27.94.94,0,0,1-.72-.27.89.89,0,0,1-.26-.65,1,1,0,0,1,.07-.36,1,1,0,0,1,.19-.3,1,1,0,0,1,.31-.2,1.25,1.25,0,0,1,.41-.07,1.3,1.3,0,0,1,.41.07,1.1,1.1,0,0,1,.31.2,1,1,0,0,1,.19.3,1,1,0,0,1,.06.36A.88.88,0,0,1,8.49,12.82Z"/></svg>