<svg id="Capa_1" data-name="Capa 1" xmlns="http://www.w3.org/2000/svg" viewBox="0 0 29.57 29.57"><defs><style>.cls-1{fill:#fff;}</style></defs><path class="cls-1" d="M25.14,4.3a14.64,14.64,0,0,0-25,10.35,14.65,14.65,0,0,0,2,7.33L0,29.57l7.77-2a14.77,14.77,0,0,0,21.8-12.88A14.71,14.71,0,0,0,25.14,4.3ZM14.79,26.85h0a12.15,12.15,0,0,1-6.2-1.71l-.45-.26L3.52,26.09,4.75,21.6l-.29-.47a12.19,12.19,0,0,1,19-15.08,12.31,12.31,0,0,1,3.7,8.61A12.32,12.32,0,0,1,14.79,26.85Z"/><path class="cls-1" d="M22,19.89a3.71,3.71,0,0,1-2.46,1.73c-1.18.18-2.07.09-4.4-.9-3.67-1.59-6.07-5.3-6.25-5.53a7.18,7.18,0,0,1-1.5-3.79A4.1,4.1,0,0,1,8.62,8.34a1.34,1.34,0,0,1,1-.46h.7c.22,0,.52-.09.82.63s1,2.53,1.12,2.71a.63.63,0,0,1,0,.64c-.7,1.41-1.45,1.34-1.06,2a10,10,0,0,0,5,4.36c.37.18.59.16.8-.1a17.41,17.41,0,0,0,1.15-1.43c.25-.37.49-.31.83-.18s2.13,1,2.5,1.19.61.27.71.42A3.51,3.51,0,0,1,22,19.89Z"/></svg>